<?xml version="1.0" encoding="UTF-8" standalone="no"?>
<!-- Created with Inkscape (http://www.inkscape.org/) -->

<svg
   xmlns:dc="http://purl.org/dc/elements/1.1/"
   xmlns:cc="http://creativecommons.org/ns#"
   xmlns:rdf="http://www.w3.org/1999/02/22-rdf-syntax-ns#"
   xmlns:svg="http://www.w3.org/2000/svg"
   xmlns="http://www.w3.org/2000/svg"
   xmlns:sodipodi="http://sodipodi.sourceforge.net/DTD/sodipodi-0.dtd"
   xmlns:inkscape="http://www.inkscape.org/namespaces/inkscape"
   width="21.247927mm"
   height="21.247927mm"
   viewBox="0 0 21.247927 21.247927"
   version="1.1"
   id="svg8"
   sodipodi:docname="favicon.svg"
   inkscape:version="0.92.5 (2060ec1f9f, 2020-04-08)"
   inkscape:export-filename="/home/user/Projects/website/public/images/logo.png"
   inkscape:export-xdpi="96"
   inkscape:export-ydpi="96">
  <defs
     id="defs2" />
  <sodipodi:namedview
     id="base"
     pagecolor="#ffffff"
     bordercolor="#666666"
     borderopacity="1.0"
     inkscape:pageopacity="0.0"
     inkscape:pageshadow="2"
     inkscape:zoom="2.8"
     inkscape:cx="100.67597"
     inkscape:cy="45.088582"
     inkscape:document-units="mm"
     inkscape:current-layer="layer1"
     showgrid="false"
     inkscape:window-width="1366"
     inkscape:window-height="704"
     inkscape:window-x="0"
     inkscape:window-y="27"
     inkscape:window-maximized="1" />
  <metadata
     id="metadata5">
    <rdf:RDF>
      <cc:Work
         rdf:about="">
        <dc:format>image/svg+xml</dc:format>
        <dc:type
           rdf:resource="http://purl.org/dc/dcmitype/StillImage" />
      </cc:Work>
    </rdf:RDF>
  </metadata>
  <g
     inkscape:label="Layer 1"
     inkscape:groupmode="layer"
     id="layer1"
     transform="translate(-67.468269,-144.20235)">
    <rect
       style="opacity:1;fill:#800080;fill-opacity:1;stroke:none;stroke-width:0.80000001;stroke-miterlimit:4;stroke-dasharray:none;stroke-opacity:1"
       id="rect45"
       width="21.247927"
       height="21.247927"
       x="67.468269"
       y="144.20235"
       ry="2.8840575" />
    <path
       d="m 70.455754,157.25557 h 10.259681 l 5.064817,2.50342 -8.667836,1.64938 z"
       style="fill:none;stroke:#ffffff;stroke-width:1.04283309;stroke-linecap:butt;stroke-linejoin:miter;stroke-dasharray:none"
       id="path4-9-6"
       inkscape:connector-curvature="0" />
    <path
       d="m 78.961571,148.34476 c 2.010128,0 3.639601,1.62948 3.639601,3.63963 0,2.01016 -1.629473,7.16673 -3.639601,7.16673 -2.010184,0 -3.639629,-5.15657 -3.639629,-7.16673 0,-2.01015 1.629445,-3.63963 3.639629,-3.63963 z m -0.03282,0.91666 c 1.468986,0 2.659503,1.19055 2.659503,2.65955 0,1.46899 -1.190517,2.6595 -2.659503,2.6595 -1.468722,0 -2.659518,-1.19051 -2.659518,-2.6595 0,-1.469 1.190796,-2.65955 2.659518,-2.65955 z"
       style="fill:#ffffff;fill-rule:evenodd;stroke:#ffffff;stroke-width:0.52141654;stroke-linecap:butt;stroke-linejoin:miter;stroke-dasharray:none"
       id="path6-1-0"
       inkscape:connector-curvature="0" />
    <path
       d="m 78.941158,149.4397 a 2.4669888,2.4669888 0 0 1 2.46698,2.46699 2.4669888,2.4669888 0 1 1 -2.46698,-2.46699 z"
       style="fill:none;stroke:#ffffff;stroke-width:0.10429801;stroke-linecap:butt;stroke-linejoin:miter;stroke-dasharray:none"
       id="path8-2-6"
       inkscape:connector-curvature="0" />
  </g>
</svg>
